<svg width="207" height="40" viewBox="0 0 207 40" fill="none" xmlns="http://www.w3.org/2000/svg">
<path d="M34.1422 5.85781C30.3647 2.08031 25.3422 0 20 0C14.6578 0 9.63531 2.08031 5.85781 5.85781C2.08031 9.63531 0 14.6578 0 20C0 25.3422 2.08039 30.3646 5.85781 34.1422C9.63523 37.9198 14.6578 40 20 40C25.3422 40 30.3647 37.9197 34.1422 34.1422C37.9197 30.3647 40 25.3422 40 20C40 14.6578 37.9196 9.63539 34.1422 5.85781Z" fill="#33CC95"/>
<path d="M20.5714 8V33.1429" stroke="white" stroke-width="2" stroke-linecap="round" stroke-linejoin="round"/>
<path d="M26.2857 12.5714H17.7143C16.6534 12.5714 15.636 12.9929 14.8859 13.743C14.1357 14.4931 13.7143 15.5106 13.7143 16.5714C13.7143 17.6323 14.1357 18.6497 14.8859 19.3999C15.636 20.15 16.6534 20.5714 17.7143 20.5714H23.4286C24.4894 20.5714 25.5069 20.9929 26.257 21.743C27.0072 22.4932 27.4286 23.5106 27.4286 24.5714C27.4286 25.6323 27.0072 26.6497 26.257 27.3999C25.5069 28.15 24.4894 28.5714 23.4286 28.5714H13.7143" stroke="white" stroke-width="2" stroke-linecap="round" stroke-linejoin="round"/>
<path d="M65.3949 22.8807C65.4034 24.6364 64.2017 25.5568 62.8977 25.5568C61.5256 25.5568 60.6392 24.5938 60.6307 23.0511V15.3636H57V23.6989C57.0085 26.7585 58.7983 28.625 61.4318 28.625C63.4006 28.625 64.8153 27.6108 65.4034 26.0767H65.5398V28.4545H69.0256V15.3636H65.3949V22.8807Z" fill="white"/>
<path d="M75.5604 20.8864C75.5689 19.1989 76.5746 18.2102 78.0405 18.2102C79.4979 18.2102 80.3757 19.1648 80.3672 20.767V28.4545H83.9979V20.1193C83.9979 17.0682 82.2081 15.1932 79.4808 15.1932C77.5376 15.1932 76.1314 16.1477 75.5433 17.6733H75.3899V15.3636H71.9297V28.4545H75.5604V20.8864Z" fill="white"/>
<path d="M92.7741 28.7102C96.2599 28.7102 98.4503 26.6648 98.6207 23.6562H95.1946C94.9815 25.054 94.0611 25.8381 92.8168 25.8381C91.1207 25.8381 90.0213 24.4148 90.0213 21.9091C90.0213 19.4375 91.1293 18.0227 92.8168 18.0227C94.1463 18.0227 94.9986 18.9006 95.1946 20.2045H98.6207C98.4673 17.179 96.1747 15.1932 92.7571 15.1932C88.7855 15.1932 86.331 17.946 86.331 21.9602C86.331 25.9403 88.7429 28.7102 92.7741 28.7102Z" fill="white"/>
<path d="M104.576 11H100.945V28.4545H104.576V11Z" fill="white"/>
<path d="M113.45 28.7102C116.689 28.7102 118.871 27.1335 119.382 24.7045L116.024 24.483C115.658 25.4801 114.72 26 113.51 26C111.695 26 110.544 24.7983 110.544 22.8466V22.8381H119.459V21.8409C119.459 17.392 116.766 15.1932 113.305 15.1932C109.453 15.1932 106.956 17.929 106.956 21.9688C106.956 26.1193 109.419 28.7102 113.45 28.7102ZM110.544 20.5881C110.621 19.0966 111.754 17.9034 113.365 17.9034C114.942 17.9034 116.033 19.0284 116.041 20.5881H110.544Z" fill="white"/>
<path d="M138.275 19.0966C137.951 16.6847 136.008 15.1932 132.701 15.1932C129.352 15.1932 127.144 16.7443 127.153 19.267C127.144 21.2273 128.38 22.4972 130.937 23.0085L133.204 23.4602C134.346 23.6903 134.866 24.108 134.883 24.7642C134.866 25.5398 134.022 26.0938 132.752 26.0938C131.457 26.0938 130.596 25.5398 130.374 24.4744L126.803 24.6619C127.144 27.1676 129.275 28.7102 132.744 28.7102C136.136 28.7102 138.565 26.9801 138.573 24.3977C138.565 22.5057 137.329 21.3722 134.789 20.8523L132.42 20.375C131.201 20.1108 130.749 19.6932 130.758 19.0625C130.749 18.2784 131.636 17.767 132.761 17.767C134.022 17.767 134.772 18.4574 134.951 19.3011L138.275 19.0966Z" fill="white"/>
<path d="M140.859 28.4545H144.49V21.0483C144.49 19.4375 145.666 18.3295 147.268 18.3295C147.771 18.3295 148.462 18.4148 148.803 18.5256V15.304C148.479 15.2273 148.027 15.1761 147.661 15.1761C146.195 15.1761 144.993 16.0284 144.516 17.6477H144.379V15.3636H140.859V28.4545Z" fill="white"/>
<path d="M155.985 28.7102C159.957 28.7102 162.428 25.9915 162.428 21.9602C162.428 17.9034 159.957 15.1932 155.985 15.1932C152.013 15.1932 149.542 17.9034 149.542 21.9602C149.542 25.9915 152.013 28.7102 155.985 28.7102ZM156.002 25.8977C154.17 25.8977 153.232 24.2188 153.232 21.9347C153.232 19.6506 154.17 17.9631 156.002 17.9631C157.8 17.9631 158.738 19.6506 158.738 21.9347C158.738 24.2188 157.8 25.8977 156.002 25.8977Z" fill="white"/>
<path d="M170.704 28.7102C174.675 28.7102 177.147 25.9915 177.147 21.9602C177.147 17.9034 174.675 15.1932 170.704 15.1932C166.732 15.1932 164.261 17.9034 164.261 21.9602C164.261 25.9915 166.732 28.7102 170.704 28.7102ZM170.721 25.8977C168.888 25.8977 167.951 24.2188 167.951 21.9347C167.951 19.6506 168.888 17.9631 170.721 17.9631C172.519 17.9631 173.457 19.6506 173.457 21.9347C173.457 24.2188 172.519 25.8977 170.721 25.8977Z" fill="white"/>
<path d="M185.406 33.6364C189.147 33.6364 191.806 31.9318 191.806 28.5824V15.3636H188.201V17.5625H188.065C187.579 16.4972 186.513 15.1932 184.323 15.1932C181.451 15.1932 179.022 17.4261 179.022 21.8835C179.022 26.2386 181.383 28.267 184.332 28.267C186.42 28.267 187.587 27.2188 188.065 26.1364H188.218V28.5312C188.218 30.3295 187.067 31.0284 185.491 31.0284C183.888 31.0284 183.079 30.3295 182.781 29.5369L179.423 29.9886C179.857 32.0511 181.877 33.6364 185.406 33.6364ZM185.482 25.5398C183.701 25.5398 182.729 24.125 182.729 21.8665C182.729 19.642 183.684 18.0824 185.482 18.0824C187.246 18.0824 188.235 19.5739 188.235 21.8665C188.235 24.1761 187.229 25.5398 185.482 25.5398Z" fill="white"/>
<path d="M200.661 28.7102C203.9 28.7102 206.082 27.1335 206.593 24.7045L203.235 24.483C202.869 25.4801 201.931 26 200.721 26C198.906 26 197.755 24.7983 197.755 22.8466V22.8381H206.67V21.8409C206.67 17.392 203.977 15.1932 200.516 15.1932C196.664 15.1932 194.167 17.929 194.167 21.9688C194.167 26.1193 196.63 28.7102 200.661 28.7102ZM197.755 20.5881C197.832 19.0966 198.965 17.9034 200.576 17.9034C202.153 17.9034 203.244 19.0284 203.252 20.5881H197.755Z" fill="white"/>
</svg>
